<mxfile host="app.diagrams.net" modified="2023-11-02T12:52:39.849Z" agent="Mozilla/5.0 (Windows NT 10.0; Win64; x64) AppleWebKit/537.36 (KHTML, like Gecko) Chrome/118.0.0.0 Safari/537.36" etag="BTcXMgBaZMEjL9ePPYo2" version="22.0.8" type="device">
  <diagram name="페이지-1" id="yiuoz9YySj1LNpY-E6a0">
    <mxGraphModel dx="1434" dy="782" grid="1" gridSize="10" guides="1" tooltips="1" connect="1" arrows="1" fold="1" page="1" pageScale="1" pageWidth="827" pageHeight="1169" math="0" shadow="0">
      <root>
        <mxCell id="0" />
        <mxCell id="1" parent="0" />
        <mxCell id="q7enW8BiowdZSrWXQIIa-5" style="edgeStyle=orthogonalEdgeStyle;rounded=0;orthogonalLoop=1;jettySize=auto;html=1;exitX=0.5;exitY=1;exitDx=0;exitDy=0;" edge="1" parent="1" source="q7enW8BiowdZSrWXQIIa-1" target="q7enW8BiowdZSrWXQIIa-3">
          <mxGeometry relative="1" as="geometry" />
        </mxCell>
        <mxCell id="q7enW8BiowdZSrWXQIIa-6" style="edgeStyle=orthogonalEdgeStyle;rounded=0;orthogonalLoop=1;jettySize=auto;html=1;exitX=0.5;exitY=1;exitDx=0;exitDy=0;" edge="1" parent="1" source="q7enW8BiowdZSrWXQIIa-1" target="q7enW8BiowdZSrWXQIIa-4">
          <mxGeometry relative="1" as="geometry" />
        </mxCell>
        <mxCell id="q7enW8BiowdZSrWXQIIa-8" style="edgeStyle=orthogonalEdgeStyle;rounded=0;orthogonalLoop=1;jettySize=auto;html=1;exitX=0.5;exitY=1;exitDx=0;exitDy=0;" edge="1" parent="1" source="q7enW8BiowdZSrWXQIIa-1" target="q7enW8BiowdZSrWXQIIa-7">
          <mxGeometry relative="1" as="geometry" />
        </mxCell>
        <mxCell id="q7enW8BiowdZSrWXQIIa-1" value="Test" style="whiteSpace=wrap;html=1;" vertex="1" parent="1">
          <mxGeometry x="354" y="200" width="120" height="60" as="geometry" />
        </mxCell>
        <mxCell id="q7enW8BiowdZSrWXQIIa-9" style="edgeStyle=orthogonalEdgeStyle;rounded=0;orthogonalLoop=1;jettySize=auto;html=1;exitX=0.5;exitY=1;exitDx=0;exitDy=0;entryX=0.5;entryY=0;entryDx=0;entryDy=0;" edge="1" parent="1" source="q7enW8BiowdZSrWXQIIa-2" target="q7enW8BiowdZSrWXQIIa-1">
          <mxGeometry relative="1" as="geometry" />
        </mxCell>
        <mxCell id="q7enW8BiowdZSrWXQIIa-11" style="edgeStyle=orthogonalEdgeStyle;rounded=0;orthogonalLoop=1;jettySize=auto;html=1;exitX=0.5;exitY=1;exitDx=0;exitDy=0;" edge="1" parent="1" source="q7enW8BiowdZSrWXQIIa-2" target="q7enW8BiowdZSrWXQIIa-10">
          <mxGeometry relative="1" as="geometry" />
        </mxCell>
        <mxCell id="q7enW8BiowdZSrWXQIIa-2" value="Develop" style="whiteSpace=wrap;html=1;" vertex="1" parent="1">
          <mxGeometry x="590" y="70" width="120" height="60" as="geometry" />
        </mxCell>
        <mxCell id="q7enW8BiowdZSrWXQIIa-3" value="손형준" style="whiteSpace=wrap;html=1;" vertex="1" parent="1">
          <mxGeometry x="190" y="330" width="120" height="60" as="geometry" />
        </mxCell>
        <mxCell id="q7enW8BiowdZSrWXQIIa-4" value="서범석" style="whiteSpace=wrap;html=1;" vertex="1" parent="1">
          <mxGeometry x="354" y="330" width="120" height="60" as="geometry" />
        </mxCell>
        <mxCell id="q7enW8BiowdZSrWXQIIa-7" value=",..." style="whiteSpace=wrap;html=1;" vertex="1" parent="1">
          <mxGeometry x="540" y="330" width="120" height="60" as="geometry" />
        </mxCell>
        <mxCell id="q7enW8BiowdZSrWXQIIa-15" value="" style="edgeStyle=orthogonalEdgeStyle;rounded=0;orthogonalLoop=1;jettySize=auto;html=1;" edge="1" parent="1" source="q7enW8BiowdZSrWXQIIa-10" target="q7enW8BiowdZSrWXQIIa-13">
          <mxGeometry relative="1" as="geometry" />
        </mxCell>
        <mxCell id="q7enW8BiowdZSrWXQIIa-16" style="edgeStyle=orthogonalEdgeStyle;rounded=0;orthogonalLoop=1;jettySize=auto;html=1;exitX=0.5;exitY=1;exitDx=0;exitDy=0;" edge="1" parent="1" source="q7enW8BiowdZSrWXQIIa-10" target="q7enW8BiowdZSrWXQIIa-12">
          <mxGeometry relative="1" as="geometry" />
        </mxCell>
        <mxCell id="q7enW8BiowdZSrWXQIIa-10" value="Theme" style="whiteSpace=wrap;html=1;" vertex="1" parent="1">
          <mxGeometry x="830" y="200" width="120" height="60" as="geometry" />
        </mxCell>
        <mxCell id="q7enW8BiowdZSrWXQIIa-12" value="B" style="whiteSpace=wrap;html=1;" vertex="1" parent="1">
          <mxGeometry x="920" y="320" width="120" height="60" as="geometry" />
        </mxCell>
        <mxCell id="q7enW8BiowdZSrWXQIIa-13" value="A" style="whiteSpace=wrap;html=1;" vertex="1" parent="1">
          <mxGeometry x="740" y="320" width="120" height="60" as="geometry" />
        </mxCell>
      </root>
    </mxGraphModel>
  </diagram>
</mxfile>
